PathFileType	4	(X/Y/Z)	C:/Users/beibeiliu/ov580/test_trc/User2\sequence.30_training_dense_right.trc
DataRate	CameraRate	NumFrames	NumMarkers	Units	OrigDataRate	OrigDataStartFrame	OrigNumFrames
120	120	16	19	mm	120	1	302
Frame#	Time	ThumbCMC			ThumbMCP			ThumbIP			ThumbTip			IndexMCP			IndexPIP			IndexTip			MiddleMCP			MiddlePIP			MiddleTip			RingMCP			RingPIP			RingTip			PinkyMCP			PinkyPIP			PinkyTip			BackHand1			BackHand2			BackHand3	
		X0	Y0	Z0	X1	Y1	Z1	X2	Y2	Z2	X3	Y3	Z3	X4	Y4	Z4	X5	Y5	Z5	X6	Y6	Z6	X7	Y7	Z7	X8	Y8	Z8	X9	Y9	Z9	X10	Y10	Z10	X11	Y11	Z11	X12	Y12	Z12	X13	Y13	Z13	X14	Y14	Z14	X15	Y15	Z15	X16	Y16	Z16	X17	Y17	Z17	X18	Y18	Z18	
0	0	76.4947	-44.1897	90.9312	47.6356	-58.6305	73.5318	29.7871	-72.6287	46.1653	20.5586	-84.3945	26.5171	73.8973	-26.7837	7.92796	63.963	-31.4411	-21.9417	54.7219	-35.29	-44.115	102.543	-23.9647	-3.9304	94.0407	-27.2591	-35.111	92.7717	-34.5842	-67.5445	124.675	-30.9585	-2.06185	123.169	-32.3846	-30.6746	121.745	-36.4661	-60.624	146.476	-43.7201	10.6826	151.539	-45.476	-16.2991	155.443	-46.453	-38.9851	133.245	-25.543	52.9418	138.891	-18.1019	86.3097	102.049	-17.4501	75.6267	
1	0.00833333	72.8405	-43.2453	86.0967	51.4193	-58.2082	73.5564	31.0479	-72.3848	44.2482	18.5919	-85.8224	28.1189	73.3893	-26.3716	7.59412	61.3661	-28.7487	-21.3553	57.0455	-35.2045	-48.7096	98.6279	-22.9921	-2.61124	92.1471	-26.7087	-39.3861	91.25	-33.9415	-69.8319	121.653	-29.5849	-4.41982	127.362	-32.7592	-28.9128	119.707	-37.4608	-60.5946	145.164	-44.222	10.636	150.676	-46.6523	-18.6092	149.147	-50.2395	-43.6653	132.427	-25.3795	52.6214	138.591	-18.574	85.3659	100.466	-15.518	72.1771	
2	0.0166667	72.5126	-42.8854	90.9806	51.2425	-58.5079	70.4485	29.8053	-72.9069	44.7041	22.3526	-85.1331	25.1999	73.5549	-25.938	6.61772	61.3253	-28.2514	-17.9659	58.1	-34.2242	-46.0434	97.8814	-22.4752	-8.06621	92.0802	-26.5673	-39.4468	91.4073	-35.6643	-71.6073	124.696	-30.2652	-3.84373	123.271	-33.1417	-29.0123	120.255	-40.5192	-59.8835	145.058	-43.1637	8.86304	150.298	-49.0895	-16.8928	149.048	-53.1181	-40.6968	133.033	-25.125	50.928	141.068	-17.93	81.6376	102.748	-14.8813	72.7727	
3	0.025	71.0214	-42.938	87.9273	49.1819	-58.8728	73.1062	30.6655	-73.5368	42.9162	21.152	-87.352	23.789	72.3214	-25.7742	8.72192	61.0495	-28.9962	-22.4764	59.2738	-34.78	-48.2584	102.688	-23.6914	-6.95878	96.3563	-28.7285	-41.5035	94.5396	-38.5769	-70.2473	123.309	-30.4055	-5.59748	124.313	-35.1827	-33.7414	118.702	-44.3346	-60.531	145.14	-45.0755	9.83776	149.057	-51.0979	-15.3433	149.079	-58.8004	-44.851	130.689	-23.9138	50.9847	140.311	-20.486	84.3319	98.76	-16.026	69.6333	
4	0.0333333	70.1054	-43.0512	86.7423	50.6775	-59.6466	71.7817	30.6295	-74.2951	44.6127	22.6539	-88.4186	23.0542	73.8789	-26.9058	4.62914	62.4483	-29.214	-19.6256	60.6082	-36.9394	-47.5597	99.3695	-25.3415	-3.00005	94.993	-31.7178	-40.9693	92.559	-40.0056	-68.2813	123.768	-34.5899	-0.810956	121.907	-38.7964	-33.9078	119.231	-47.9506	-62.0558	147.021	-49.1702	12.1624	149.089	-54.8649	-19.9759	148.475	-64.8128	-44.3155	132.363	-26.5971	53.9703	143.71	-20.2949	83.5012	105.277	-17.7243	72.2091	
5	0.0416667	71.2817	-44.4019	85.7546	53.3098	-60.5593	70.9777	33.9985	-75.4452	48.653	24.0212	-88.7952	26.9813	71.8811	-29.4561	6.70497	66.6923	-33.0022	-22.6989	54.82	-38.5637	-49.052	102.402	-27.9645	-3.79116	98.772	-33.2083	-38.017	93.1013	-42.399	-66.3513	123.085	-36.2313	-4.23846	126.216	-41.1364	-31.0731	118.504	-50.8679	-57.3878	148.581	-51.2939	8.59783	148.015	-57.1254	-15.7912	150.899	-66.4231	-45.1762	136.535	-29.3588	50.5024	140.999	-22.2719	81.1505	104.816	-18.884	68.2567	
6	0.05	73.7094	-45.6558	85.8582	49.7568	-60.4378	72.4927	28.7469	-75.7561	46.2995	19.7288	-90.2451	27.6494	73.1215	-30.9044	5.66051	61.612	-33.8579	-22.4658	60.4558	-41.0095	-49.3494	99.3967	-28.7209	-5.11658	96.266	-34.9451	-38.0611	93.3996	-44.5994	-68.7102	127.175	-37.9129	-5.02823	127.26	-43.293	-31.585	122.44	-52.1351	-58.3001	145.884	-52.6844	11.0381	151.689	-60.4964	-17.9921	151.849	-66.472	-45.0279	133.458	-28.3314	53.1977	138.939	-22.5523	83.1844	102.486	-19.9364	68.7706	
7	0.0583333	72.3221	-46.2785	89.3778	49.0434	-60.8946	71.1923	28.8712	-75.6518	46.3032	17.957	-89.0306	25.1718	70.3375	-30.3862	4.89435	63.5778	-35.2251	-25.6715	56.8561	-40.7791	-52.5569	100.136	-30.2842	-8.12495	95.2355	-35.436	-40.4334	94.6651	-44.6337	-74.1116	126.872	-39.2343	-6.64961	127.579	-43.4231	-33.6584	119.663	-49.3111	-59.0991	145.686	-52.6973	11.3835	148.673	-58.2372	-14.905	154.132	-60.7107	-42.4242	131.192	-28.1545	47.9473	139.066	-22.4069	83.7797	99.8568	-19.5145	71.0874	
8	0.0666667	72.549	-47.5333	82.7372	47.6353	-61.4296	70.326	29.1849	-74.8015	46.4526	15.7025	-88.2107	26.6611	70.594	-31.361	2.27008	61.1577	-33.2576	-24.8406	57.7042	-38.992	-49.4189	99.4099	-29.495	-7.89053	94.1189	-34.7455	-43.5955	91.3242	-40.6575	-68.853	122.674	-37.2408	-3.31337	123.443	-40.9373	-31.1967	120.615	-45.6739	-63.1272	145.788	-51.468	8.56284	146.919	-55.9405	-18.3876	155.209	-57.4473	-40.074	134.145	-28.9881	47.8618	140.04	-24.1501	79.2717	101.849	-21.6903	70.3314	
9	0.075	69.3173	-48.4854	86.2936	45.6744	-62.9908	67.7735	25.43	-74.2572	44.6743	11.9288	-85.8357	22.9631	71.0428	-31.1274	0.714823	58.7822	-33.1986	-22.3566	54.5824	-38.5519	-53.3848	93.993	-28.0227	-10.9536	91.9152	-32.5518	-44.2377	88.6241	-36.1866	-70.7013	122.08	-36.2006	-4.53819	120.984	-37.9925	-31.9751	118.158	-40.5042	-62.2048	146.547	-50.7719	6.99383	147.275	-52.8395	-18.7549	150.256	-49.3276	-41.7941	127.57	-31.8311	50.1925	137.52	-26.3785	77.3272	101.83	-21.7286	69.5711	
10	0.0833333	69.7626	-50.4038	80.8253	41.6819	-62.0636	63.9376	20.3439	-73.7803	40.6558	10.1717	-83.912	18.4722	68.432	-30.2212	3.73196	56.8345	-30.9875	-27.4968	57.0018	-33.7745	-52.8311	95.4314	-26.9779	-11.1127	94.0396	-27.4971	-41.5433	89.9134	-30.8048	-72.3739	122.299	-33.1966	-8.67794	121.726	-32.6982	-33.2947	118.514	-33.0914	-62.507	145.86	-49.3693	5.70187	146.047	-48.4931	-19.6171	150.705	-41.6236	-45.1598	126.766	-32.2564	50.9564	135.234	-26.5216	80.9208	99.0104	-25.9719	69.3682	
11	0.0916667	68.0736	-54.2565	83.4202	45.8949	-62.4783	62.4898	19.9469	-70.2803	33.9522	6.46276	-78.777	13.219	65.267	-27.7049	1.21743	58.3595	-25.7734	-27.7252	53.1589	-27.4372	-55.6707	92.3736	-23.2191	-7.32365	91.1335	-20.1404	-42.6302	85.7479	-19.9621	-72.2028	120.466	-27.8565	-7.11982	121.581	-25.1894	-32.6907	115.969	-22.2749	-63.9511	139.69	-43.3351	2.25489	146.211	-39.9389	-22.8366	151.101	-33.3404	-44.0688	127.035	-32.2112	44.9386	133.133	-30.0544	78.9759	93.2125	-27.3564	65.7071	
12	0.1	65.0383	-56.6212	81.6912	43.6763	-62.3782	60.714	20.9534	-67.6601	36.3935	6.89184	-72.3012	14.3058	62.7365	-21.2155	1.50452	57.1802	-17.7104	-25.1814	49.338	-16.2016	-48.4273	89.4866	-15.0772	-9.44301	90.2923	-10.4609	-42.4396	86.338	-6.65302	-69.8599	116.943	-21.0381	-6.17865	119.96	-14.0255	-33.3552	111.563	-7.15404	-59.8289	140.546	-37.1256	3.49647	141.982	-30.5877	-20.4265	145.05	-20.2903	-42.3688	124.287	-30.0138	47.2859	131.743	-33.4041	78.3505	93.3463	-27.6534	70.4951	
13	0.108333	67.9447	-58.3932	76.9652	41.5593	-61.7593	59.0837	21.0833	-61.3869	33.1401	5.94842	-65.4328	13.5547	65.9912	-17.2554	6.43334	57.3992	-7.43944	-20.5129	48.6884	-0.585045	-48.934	93.5682	-9.68661	-2.25614	88.7151	0.965991	-32.9601	84.568	10.7928	-65.8615	117.587	-13.7432	-4.01321	111.937	-4.39909	-25.7647	111.191	5.63101	-51.0312	140.294	-33.2658	7.72392	141.769	-20.032	-18.835	141.087	-8.19642	-35.2204	123.377	-31.5375	50.9435	130.978	-35.0157	77.9212	91.8347	-29.5724	72.2229	
14	0.116667	64.528	-59.0027	76.0094	37.1704	-60.1964	60.3867	18.3861	-55.9823	32.2412	3.28246	-54.058	7.28147	61.706	-8.81377	7.56253	56.1238	2.11646	-18.5516	47.7864	10.8062	-41.1305	87.1456	-3.10286	0.269573	87.5926	10.3883	-27.2655	81.9379	24.4769	-57.5587	116.708	-8.55564	0.416945	113.229	7.07869	-23.8795	107.86	20.4578	-48.5893	136.705	-28.2113	8.99963	142.433	-13.0672	-11.4835	141.497	5.9657	-31.4945	124.808	-30.3147	49.345	127.95	-36.3176	80.6023	90.5006	-30.6795	68.5977	
15	0.125	60.6716	-55.8792	75.0091	37.1689	-55.3859	57.334	15.4685	-49.4447	31.4684	3.99024	-47.1247	8.46406	60.6968	-2.92112	10.6316	53.2472	11.0302	-14.6806	47.4369	22.9342	-36.5412	87.1691	4.95125	1.24915	82.0759	21.7163	-25.4741	80.1795	36.4706	-49.25	110.661	-1.39205	3.42891	115.915	12.8687	-16.1113	110.417	30.8083	-41.3616	135.731	-21.8779	10.7481	140.157	-5.50471	-8.75907	140.468	14.1745	-24.9929	124.517	-26.9571	51.1834	129.45	-33.9866	78.4485	89.7684	-30.2303	71.9047	
